<?xml version="1.0" encoding="utf-8"?>
<!-- Generator: Adobe Adobe Illustrator 24.2.0, SVG Export Plug-In . SVG Version: 6.00 Build 0)  -->
<svg version="1.1" id="レイヤー_1" xmlns="http://www.w3.org/2000/svg" xmlns:xlink="http://www.w3.org/1999/xlink" x="0px"
	 y="0px" width="231px" height="263px" viewBox="0 0 231 263" style="enable-background:new 0 0 231 263;" xml:space="preserve">
<style type="text/css">
	.st0{fill:#FFFFFF;}
	.st1{stroke:#FFFFFF;stroke-width:7.6436;stroke-linecap:round;stroke-linejoin:round;}
	.st2{fill:#1CAED0;}
	.st3{display:none;fill:#FFFFFF;}
	.st4{display:none;fill:#1CAED0;}
</style>
<g>
	<g>
		<path class="st0" d="M43.6,190.44v-0.78h7.82v-3.13H43.6v-4.71h8.62v0.8h-7.84v3.13h7.84v4.69H43.6z"/>
		<path class="st0" d="M58.01,190.44v-12.53h0.78v3.91h7.85v8.62h-0.8v-7.82h-7.04v7.82H58.01z"/>
		<path class="st0" d="M72.42,190.44v-8.62h8.62v1.18l-6.67,6.67h6.67v0.78H72.42z M73.2,189.66l7.04-7.04H73.2V189.66z"/>
		<path class="st0" d="M86.84,190.44v-8.62h8.62v1.18l-6.67,6.67h6.67v0.78H86.84z M87.61,189.66l7.04-7.04h-7.04V189.66z"/>
		<path class="st0" d="M105.16,190.44v-7.82h-3.91v-0.8h8.62v0.8h-3.94v7.82H105.16z"/>
		<path class="st0" d="M128.19,190.44v-8.62h8.62v8.62h-0.8v-7.82h-3.13v7.82h-0.78v-7.82h-3.13v7.82H128.19z"/>
		<path class="st0" d="M142.61,190.44v-8.62h8.62v1.18l-6.67,6.67h6.67v0.78H142.61z M143.38,189.66l7.04-7.04h-7.04V189.66z"/>
		<path class="st0" d="M160.93,190.44v-7.82h-3.91v-0.8h8.62v0.8h-3.94v7.82H160.93z"/>
		<path class="st0" d="M171.43,190.44v-1.18l6.67-6.64h-6.67v-0.8h8.62v8.62H171.43z M179.25,189.66v-7.04l-7.04,7.04H179.25z"/>
		<path class="st0" d="M185.84,190.44v-8.62h0.78v7.85h7.85v0.78H185.84z"/>
		<path class="st0" d="M68.2,209.72v-8.62h0.78v8.62H68.2z"/>
		<path class="st0" d="M74.77,209.72v-8.62h8.62v8.62h-0.8v-7.82h-7.04v7.82H74.77z"/>
		<path class="st0" d="M89.18,209.72v-8.62H97v-3.91h0.8v12.53H89.18z M97,208.94v-7.04h-7.04v7.04H97z"/>
		<path class="st0" d="M103.59,209.72v-8.62h0.78v7.85h7.04v-7.85h0.8v8.62H103.59z"/>
		<path class="st0" d="M118,209.72v-0.78h7.82v-3.13H118v-4.71h8.62v0.8h-7.85v3.13h7.85v4.69H118z"/>
		<path class="st0" d="M136.33,209.72v-7.82h-3.91v-0.8h8.62v0.8h-3.94v7.82H136.33z"/>
		<path class="st0" d="M146.83,209.72v-8.62h8.62v0.8h-7.85v7.82H146.83z"/>
		<path class="st0" d="M165.15,209.72v-0.78h3.91v-3.13h-7.82v-4.71h0.78v3.94h7.04v-3.94h0.8v8.62H165.15z"/>
	</g>
</g>
<g>
	<path class="st0" d="M202.7,98.42l-25.13-14.51c-0.88-0.51-1.92-0.65-2.9-0.38c-0.98,0.26-1.81,0.9-2.32,1.78l-25.32,43.86
		l-8.59-14.88c0,0,0,0,0,0l-16.32-28.26c0.01-0.1,0.02-0.2,0.02-0.31V56.69c0-2.11-1.71-3.82-3.82-3.82H89.29
		c-1.55,0-2.94,0.93-3.53,2.36c-0.59,1.43-0.26,3.07,0.83,4.16l27.52,27.52l-15.8,27.37l-22.39,38.77V56.69
		c0-2.11-1.71-3.82-3.82-3.82H43.07c-2.11,0-3.82,1.71-3.82,3.82v109.99c0,2.11,1.71,3.82,3.82,3.82h29.02
		c0.07,0,0.14-0.01,0.21-0.01c0.05,0,0.11,0.01,0.16,0.01h33.51c1.37,0,2.63-0.73,3.31-1.91l9.08-15.72l8.59,14.88v0l0,0l0.49,0.84
		c0.68,1.18,1.94,1.91,3.31,1.91h32.54c1.36,0,2.62-0.73,3.31-1.91l0.49-0.84l0,0v0l37.01-64.1
		C205.15,101.81,204.53,99.48,202.7,98.42z"/>
</g>
<g>
	<polygon points="118.31,85.71 89.29,56.69 118.31,56.69 	"/>
	<rect x="43.07" y="56.69" width="29.02" height="109.99"/>
	<g>
		<polygon points="135.12,116.19 118.37,145.21 130.27,165.83 147.02,136.81 		"/>
		<polygon points="72.47,166.67 105.98,166.67 118.37,145.21 101.61,116.19 		"/>
		<polygon class="st2" points="118.42,87.27 118.37,87.24 118.31,87.27 101.61,116.19 118.37,145.21 135.12,116.19 		"/>
		<polygon points="200.79,101.73 175.66,87.22 147.02,136.81 163.78,165.83 		"/>
		<polygon class="st2" points="147.02,136.81 130.27,165.83 130.75,166.67 163.3,166.67 163.78,165.83 		"/>
	</g>
</g>
</svg>
